<svg width="60" height="30" viewBox="0 0 60 30" xmlns="http://www.w3.org/2000/svg">
 <g transform="rotate(90) translate(-15 -15)" transform-origin="15 30">
  <rect id="svg_1" height="60" width="30" stroke-width="0" stroke="#000" fill="#cccccc"/>
  <rect id="svg_4" height="4" width="4" y="3" x="3" stroke-opacity="null" stroke-width="0" stroke="#000" fill="#666666"/>
  <rect id="svg_5" height="4" width="4" y="8" x="3" stroke-opacity="null" stroke-width="0" stroke="#000" fill="#666666"/>
  <rect id="svg_6" height="4" width="4" y="13" x="3" stroke-opacity="null" stroke-width="0" stroke="#000" fill="#666666"/>
  <rect id="svg_7" height="4" width="4" y="18" x="3" stroke-opacity="null" stroke-width="0" stroke="#000" fill="#666666"/>
  <rect id="svg_8" height="4" width="4" y="23" x="3" stroke-opacity="null" stroke-width="0" stroke="#000" fill="#666666"/>
  <rect id="svg_9" height="4" width="4" y="33" x="3" stroke-opacity="null" stroke-width="0" stroke="#000" fill="#666666"/>
  <rect id="svg_10" height="4" width="4" y="38" x="3" stroke-opacity="null" stroke-width="0" stroke="#000" fill="#666666"/>
  <rect id="svg_11" height="4" width="4" y="43" x="3" stroke-opacity="null" stroke-width="0" stroke="#000" fill="#666666"/>
  <rect id="svg_12" height="4" width="4" y="48" x="3" stroke-opacity="null" stroke-width="0" stroke="#000" fill="#666666"/>
  <rect id="svg_13" height="4" width="4" y="53" x="3" stroke-opacity="null" stroke-width="0" stroke="#000" fill="#666666"/>
  <rect id="svg_19" height="4" width="4" y="3" x="8" stroke-opacity="null" stroke-width="0" stroke="#000" fill="#666666"/>
  <rect id="svg_20" height="4" width="4" y="8" x="8" stroke-opacity="null" stroke-width="0" stroke="#000" fill="#666666"/>
  <rect id="svg_21" height="4" width="4" y="13" x="8" stroke-opacity="null" stroke-width="0" stroke="#000" fill="#666666"/>
  <rect id="svg_22" height="4" width="4" y="18" x="8" stroke-opacity="null" stroke-width="0" stroke="#000" fill="#666666"/>
  <rect id="svg_23" height="4" width="4" y="23" x="8" stroke-opacity="null" stroke-width="0" stroke="#000" fill="#666666"/>
  <rect id="svg_24" height="4" width="4" y="3" x="13" stroke-opacity="null" stroke-width="0" stroke="#000" fill="#666666"/>
  <rect id="svg_25" height="4" width="4" y="8" x="13" stroke-opacity="null" stroke-width="0" stroke="#000" fill="#666666"/>
  <rect id="svg_26" height="4" width="4" y="13" x="13" stroke-opacity="null" stroke-width="0" stroke="#000" fill="#666666"/>
  <rect id="svg_27" height="4" width="4" y="18" x="13" stroke-opacity="null" stroke-width="0" stroke="#000" fill="#666666"/>
  <rect id="svg_28" height="4" width="4" y="23" x="13" stroke-opacity="null" stroke-width="0" stroke="#000" fill="#666666"/>
  <rect id="svg_29" height="4" width="4" y="3" x="18" stroke-opacity="null" stroke-width="0" stroke="#000" fill="#666666"/>
  <rect id="svg_30" height="4" width="4" y="8" x="18" stroke-opacity="null" stroke-width="0" stroke="#000" fill="#666666"/>
  <rect id="svg_31" height="4" width="4" y="13" x="18" stroke-opacity="null" stroke-width="0" stroke="#000" fill="#666666"/>
  <rect id="svg_32" height="4" width="4" y="18" x="18" stroke-opacity="null" stroke-width="0" stroke="#000" fill="#666666"/>
  <rect id="svg_33" height="4" width="4" y="23" x="18" stroke-opacity="null" stroke-width="0" stroke="#000" fill="#666666"/>
  <rect id="svg_34" height="4" width="4" y="3" x="23" stroke-opacity="null" stroke-width="0" stroke="#000" fill="#666666"/>
  <rect id="svg_35" height="4" width="4" y="8" x="23" stroke-opacity="null" stroke-width="0" stroke="#000" fill="#666666"/>
  <rect id="svg_36" height="4" width="4" y="13" x="23" stroke-opacity="null" stroke-width="0" stroke="#000" fill="#666666"/>
  <rect id="svg_37" height="4" width="4" y="18" x="23" stroke-opacity="null" stroke-width="0" stroke="#000" fill="#666666"/>
  <rect id="svg_38" height="4" width="4" y="23" x="23" stroke-opacity="null" stroke-width="0" stroke="#000" fill="#666666"/>
  <rect id="svg_39" height="4" width="4" y="33" x="8" stroke-opacity="null" stroke-width="0" stroke="#000" fill="#666666"/>
  <rect id="svg_40" height="4" width="4" y="38" x="8" stroke-opacity="null" stroke-width="0" stroke="#000" fill="#666666"/>
  <rect id="svg_41" height="4" width="4" y="43" x="8" stroke-opacity="null" stroke-width="0" stroke="#000" fill="#666666"/>
  <rect id="svg_42" height="4" width="4" y="48" x="8" stroke-opacity="null" stroke-width="0" stroke="#000" fill="#666666"/>
  <rect id="svg_43" height="4" width="4" y="53" x="8" stroke-opacity="null" stroke-width="0" stroke="#000" fill="#666666"/>
  <rect id="svg_44" height="4" width="4" y="33" x="13" stroke-opacity="null" stroke-width="0" stroke="#000" fill="#666666"/>
  <rect id="svg_45" height="4" width="4" y="38" x="13" stroke-opacity="null" stroke-width="0" stroke="#000" fill="#666666"/>
  <rect id="svg_46" height="4" width="4" y="43" x="13" stroke-opacity="null" stroke-width="0" stroke="#000" fill="#666666"/>
  <rect id="svg_47" height="4" width="4" y="48" x="13" stroke-opacity="null" stroke-width="0" stroke="#000" fill="#666666"/>
  <rect id="svg_48" height="4" width="4" y="53" x="13" stroke-opacity="null" stroke-width="0" stroke="#000" fill="#666666"/>
  <rect id="svg_49" height="4" width="4" y="33" x="18" stroke-opacity="null" stroke-width="0" stroke="#000" fill="#666666"/>
  <rect id="svg_50" height="4" width="4" y="38" x="18" stroke-opacity="null" stroke-width="0" stroke="#000" fill="#666666"/>
  <rect id="svg_51" height="4" width="4" y="43" x="18" stroke-opacity="null" stroke-width="0" stroke="#000" fill="#666666"/>
  <rect id="svg_52" height="4" width="4" y="48" x="18" stroke-opacity="null" stroke-width="0" stroke="#000" fill="#666666"/>
  <rect id="svg_53" height="4" width="4" y="53" x="18" stroke-opacity="null" stroke-width="0" stroke="#000" fill="#666666"/>
  <rect id="svg_54" height="4" width="4" y="33" x="23" stroke-opacity="null" stroke-width="0" stroke="#000" fill="#666666"/>
  <rect id="svg_55" height="4" width="4" y="38" x="23" stroke-opacity="null" stroke-width="0" stroke="#000" fill="#666666"/>
  <rect id="svg_56" height="4" width="4" y="43" x="23" stroke-opacity="null" stroke-width="0" stroke="#000" fill="#666666"/>
  <rect id="svg_57" height="4" width="4" y="48" x="23" stroke-opacity="null" stroke-width="0" stroke="#000" fill="#666666"/>
  <rect id="svg_58" height="4" width="4" y="53" x="23" stroke-opacity="null" stroke-width="0" stroke="#000" fill="#666666"/>
 </g>
</svg>