<svg t="1671636164716" class="icon" viewBox="0 0 1024 1024" version="1.1" xmlns="http://www.w3.org/2000/svg"
    p-id="14181" width="200" height="200">
    <path d="M263.68 436.736h518.656v273.92H263.68z" fill="#6DACE7" p-id="14182"></path>
    <path
        d="M920.064 882.688h-798.72c-11.264 0-19.968-9.216-19.968-19.968V411.136h39.936v431.104h758.784V269.824l-247.808 1.024c-6.144 0-11.776-3.072-15.872-7.68l-63.488-81.408H470.016l-64.512 81.92c-3.584 4.608-9.728 7.68-15.872 7.68H141.824v39.424H834.56v39.936H121.856c-11.264 0-19.968-9.216-19.968-19.968V250.88c0-11.264 9.216-19.968 19.968-19.968h258.56l64.512-81.92c3.584-4.608 9.728-7.68 15.872-7.68h122.368c6.144 0 11.776 3.072 15.872 7.68L662.528 230.4l258.048-1.024c5.12 0 10.24 2.048 14.336 5.632 3.584 3.584 6.144 8.704 6.144 14.336v612.864c-0.512 11.264-9.728 20.48-20.992 20.48z"
        fill="#0024A2" p-id="14183"></path>
    <path
        d="M265.216 416.768h219.648v39.936H265.216zM265.216 514.048h360.448v39.936H265.216zM265.216 613.888h166.912v39.936H265.216zM674.304 690.176h108.032v39.936h-108.032z"
        fill="#0024A2" p-id="14184"></path>
</svg>