<svg xmlns="http://www.w3.org/2000/svg" xmlns:xlink="http://www.w3.org/1999/xlink" width="44" height="44"
    viewBox="0 0 20 20" fill="none">
    <g opacity="1">
        <path id="Fill 1" fill-rule="evenodd" style="fill:#000000"
            opacity="1"
            d="M0,10c0,5.52 4.48,10 10,10c5.52,0 10,-4.48 10,-10c0,-5.52 -4.48,-10 -10,-10c-5.52,0 -10,4.48 -10,10z M10,19c-2.69,0 -5.1,-1.18 -6.75,-3.04c0.15,-0.23 0.37,-0.42 0.63,-0.54l4.08,-1.85c0.62,0.28 1.31,0.43 2.04,0.43c0.73,0 1.42,-0.15 2.04,-0.43l4.08,1.85c0.26,0.12 0.48,0.31 0.63,0.54c-1.65,1.86 -4.06,3.04 -6.75,3.04z M6,9c0,-2.21 1.79,-4 4,-4c2.21,0 4,1.79 4,4c0,2.21 -1.79,4 -4,4c-2.21,0 -4,-1.79 -4,-4z M13.08,12.94c1.17,-0.91 1.92,-2.34 1.92,-3.94c0,-2.76 -2.24,-5 -5,-5c-2.76,0 -5,2.24 -5,5c0,1.6 0.75,3.03 1.92,3.94l-3.45,1.58c-0.33,0.15 -0.62,0.36 -0.85,0.63c-1.02,-1.46 -1.62,-3.23 -1.62,-5.15c0,-4.97 4.03,-9 9,-9c4.97,0 9,4.03 9,9c0,1.92 -0.6,3.69 -1.61,5.15c-0.24,-0.27 -0.53,-0.48 -0.85,-0.63z " />
    </g>
</svg>