<svg t="1671674177904" class="icon" viewBox="0 0 1024 1024" version="1.1" xmlns="http://www.w3.org/2000/svg" p-id="6977"
    width="200" height="200">
    <path
        d="M617.63 322.96c-11.04-0.05-19.97-10.81-19.97-24.08V197.12c0.65-13.28 10.14-23.4 21.18-22.62 10.13 0.72 18.22 10.44 18.82 22.62v101.75c0 13.3-8.97 24.09-20.03 24.09z"
        fill="#000000" p-id="6978"></path>
    <path
        d="M870 64H154c-49.71 0-90 40.29-90 90v716c0 49.71 40.29 90 90 90h716c49.71 0 90-40.29 90-90V154c0-49.71-40.29-90-90-90z m50 796c0 33.14-26.86 60-60 60H164c-33.14 0-60-26.86-60-60V164c0-33.14 26.86-60 60-60h696c33.14 0 60 26.86 60 60v696z"
        fill="#000000" p-id="6979"></path>
    <path
        d="M703.88 591.29H320.12c-49.71 0-90 40.29-90 90V960h563.75V681.29c0.01-49.71-40.29-90-89.99-90z m50 328.71H270.12V691.29c0-33.14 26.86-60 60-60h363.75c33.14 0 60 26.86 60 60V920zM350.12 434.71h323.75c49.71 0 90-40.29 90-90V64H260.12v280.71c0 49.71 40.3 90 90 90z m-50-330.71h423.75v230.71c0 33.14-26.86 60-60 60H360.12c-33.14 0-60-26.86-60-60V104z"
        fill="#000000" p-id="6980"></path>
</svg>