<svg t="1670988038037" class="icon" viewBox="0 0 1024 1024" version="1.1" xmlns="http://www.w3.org/2000/svg" p-id="957"
    width="128" height="128">
    <path
        d="M866.56 577.0752c-14.1312 0-25.6 11.4688-25.6 25.6v188.2624c0 16.1792-13.1584 29.2864-29.2864 29.2864H211.6096c-16.1792 0-29.2864-13.1584-29.2864-29.2864v-188.2624c0-14.1312-11.4688-25.6-25.6-25.6s-25.6 11.4688-25.6 25.6v188.2624c0 44.3904 36.096 80.4864 80.4864 80.4864h600.0128c44.3904 0 80.4864-36.096 80.4864-80.4864v-188.2624c0.0512-14.1312-11.4176-25.6-25.5488-25.6z"
        fill="#000000" p-id="958"></path>
    <path
        d="M511.6416 708.608c14.1312 0 25.6-11.4688 25.6-25.6V355.84l100.9152 100.608a25.6 25.6 0 1 0 36.1472-36.2496l-130.8672-130.4576c-17.5104-17.4592-46.08-17.4592-63.5904 0L348.9792 420.1984a25.56928 25.56928 0 0 0-0.0512 36.1984 25.56928 25.56928 0 0 0 36.1984 0.0512L486.0416 355.84v327.1168c0 14.1824 11.4688 25.6512 25.6 25.6512zM363.5712 208.896h296.0896c14.1312 0 25.6-11.4688 25.6-25.6s-11.4688-25.6-25.6-25.6H363.5712c-14.1312 0-25.6 11.4688-25.6 25.6s11.4688 25.6 25.6 25.6z"
        fill="#000000" p-id="959"></path>
</svg>