<svg t="1671001131420" class="icon" viewBox="0 0 1024 1024" version="1.1" xmlns="http://www.w3.org/2000/svg" p-id="1129"
    width="200" height="200">
    <path
        d="M241.066667 601.6l362.666666-362.666667c17.066667-17.066667 42.666667-17.066667 59.733334 0l121.6 121.6c17.066667 17.066667 17.066667 42.666667 0 59.733334l-362.666667 362.666666c-17.066667 17.066667-42.666667 17.066667-59.733333 0L241.066667 661.333333c-17.066667-14.933333-17.066667-42.666667 0-59.733333z"
        fill="#333333" p-id="1130"></path>
    <path
        d="M390.4 817.066667c-17.066667 0-32-6.4-44.8-19.2l-121.6-121.6c-12.8-12.8-19.2-27.733333-19.2-44.8s6.4-34.133333 19.2-44.8l362.666667-362.666667c23.466667-23.466667 66.133333-23.466667 89.6 0l121.6 121.6c12.8 12.8 19.2 27.733333 19.2 44.8s-6.4 34.133333-19.2 44.8l-362.666667 362.666667c-10.666667 12.8-27.733333 19.2-44.8 19.2z m243.2-567.466667c-6.4 0-10.666667 2.133333-14.933333 6.4L256 618.666667c-4.266667 4.266667-6.4 8.533333-6.4 14.933333 0 6.4 2.133333 10.666667 6.4 14.933333l121.6 121.6c8.533333 8.533333 21.333333 8.533333 29.866667 0l362.666666-362.666666c4.266667-4.266667 6.4-8.533333 6.4-14.933334 0-6.4-2.133333-10.666667-6.4-14.933333L648.533333 256c-4.266667-4.266667-10.666667-6.4-14.933333-6.4z"
        fill="#333333" p-id="1131"></path>
    <path
        d="M149.333333 896c-6.4 0-10.666667-2.133333-14.933333-6.4-8.533333-8.533333-8.533333-21.333333 0-29.866667l151.466667-151.466666c8.533333-8.533333 21.333333-8.533333 29.866666 0 8.533333 8.533333 8.533333 21.333333 0 29.866666l-151.466666 151.466667c-4.266667 4.266667-8.533333 6.4-14.933334 6.4zM723.2 322.133333c-6.4 0-10.666667-2.133333-14.933333-6.4-8.533333-8.533333-8.533333-21.333333 0-29.866666l151.466666-151.466667c8.533333-8.533333 21.333333-8.533333 29.866667 0 8.533333 8.533333 8.533333 21.333333 0 29.866667l-151.466667 151.466666c-4.266667 4.266667-8.533333 6.4-14.933333 6.4z"
        fill="#333333" p-id="1132"></path>
    <path
        d="M497.066667 729.6c-6.4 0-10.666667-2.133333-14.933334-6.4l-181.333333-181.333333c-8.533333-8.533333-8.533333-21.333333 0-29.866667 8.533333-8.533333 21.333333-8.533333 29.866667 0l181.333333 181.333333c8.533333 8.533333 8.533333 21.333333 0 29.866667-4.266667 4.266667-10.666667 6.4-14.933333 6.4zM601.6 622.933333c-6.4 0-10.666667-2.133333-14.933333-6.4L405.333333 435.2c-8.533333-8.533333-8.533333-21.333333 0-29.866667 8.533333-8.533333 21.333333-8.533333 29.866667 0l181.333333 181.333334c8.533333 8.533333 8.533333 21.333333 0 29.866666-2.133333 4.266667-8.533333 6.4-14.933333 6.4zM708.266667 518.4c-6.4 0-10.666667-2.133333-14.933334-6.4L512 330.666667c-8.533333-8.533333-8.533333-21.333333 0-29.866667 8.533333-8.533333 21.333333-8.533333 29.866667 0l181.333333 181.333333c8.533333 8.533333 8.533333 21.333333 0 29.866667-4.266667 4.266667-10.666667 6.4-14.933333 6.4z"
        fill="#FFFFFF" p-id="1133"></path>
    <path
        d="M270.933333 593.066667c-6.4 0-10.666667-2.133333-14.933333-6.4-8.533333-8.533333-8.533333-21.333333 0-29.866667L556.8 256c8.533333-8.533333 21.333333-8.533333 29.866667 0 8.533333 8.533333 8.533333 21.333333 0 29.866667L285.866667 586.666667c-4.266667 4.266667-10.666667 6.4-14.933334 6.4zM452.266667 774.4c-6.4 0-10.666667-2.133333-14.933334-6.4-8.533333-8.533333-8.533333-21.333333 0-29.866667l300.8-300.8c8.533333-8.533333 21.333333-8.533333 29.866667 0 8.533333 8.533333 8.533333 21.333333 0 29.866667L467.2 768c-4.266667 4.266667-10.666667 6.4-14.933333 6.4z"
        fill="#333333" p-id="1134"></path>
</svg>