<svg xmlns="http://www.w3.org/2000/svg" xmlns:xlink="http://www.w3.org/1999/xlink" width="36" height="36"
    viewBox="0 0 20 20" fill="none">
    <g opacity="1">
        <path id="Combined Shape" fill-rule="evenodd" style="fill:#000000"
            transform="translate(6 0)" opacity="1"
            d="M7,9.5c0,1.76 -1.3,3.22 -3,3.46v5.56c0,0.28 -0.22,0.5 -0.5,0.5c-0.28,0 -0.5,-0.22 -0.5,-0.5v-5.56c-1.7,-0.24 -3,-1.7 -3,-3.46c0,-1.76 1.3,-3.22 3,-3.46v-5.54c0,-0.28 0.22,-0.5 0.5,-0.5c0.28,0 0.5,0.22 0.5,0.5v5.54c1.7,0.24 3,1.7 3,3.46z M6,9.5c0,-1.38 -1.12,-2.5 -2.5,-2.5c-1.38,0 -2.5,1.12 -2.5,2.5c0,1.38 1.12,2.5 2.5,2.5c1.38,0 2.5,-1.12 2.5,-2.5z " />
    </g>
</svg>