<svg t="1677239905179" class="icon" viewBox="-50 -50 1074 1074" version="1.1" xmlns="http://www.w3.org/2000/svg" p-id="4722"
    width="200" height="200">
    <path
        d="M935.15 375.34c0-25.38-9.88-49.23-27.83-67.17L727.96 128.8c-37.04-37.04-97.31-37.04-134.35 0L338.53 383.89l-72.74-30.44c-35.71-14.94-76.48-6.91-103.85 20.46l-38.15 38.15c-37.04 37.04-37.04 97.31 0 134.35L282 704.62 127.5 859.13c-13.67 13.67-13.67 35.83 0 49.5 6.83 6.83 15.79 10.25 24.75 10.25s17.92-3.42 24.75-10.25l154.5-154.51 158.21 158.21c17.94 17.94 41.8 27.83 67.18 27.83s49.23-9.88 67.17-27.83l38.15-38.15c27.37-27.37 35.4-68.14 20.46-103.85l-30.44-72.74L907.32 442.5c17.95-17.93 27.83-41.79 27.83-67.16z m-77.33 17.67l-262.2 262.2c-15.85 15.85-20.5 39.45-11.85 60.12l34.32 82.02c3.93 9.4 1.82 20.13-5.38 27.33l-38.15 38.15c-4.72 4.72-11 7.32-17.68 7.32s-12.96-2.6-17.68-7.32L173.29 496.91c-9.75-9.75-9.75-25.61 0-35.36l38.15-38.15c4.8-4.8 11.16-7.34 17.65-7.34 3.25 0 6.54 0.64 9.68 1.95l82.02 34.32c20.68 8.65 44.28 4 60.12-11.85l262.2-262.2c9.75-9.75 25.61-9.75 35.36 0l179.36 179.36c9.74 9.77 9.74 25.63-0.01 35.37z"
        p-id="4723" fill="#000000"></path>
</svg>